<mxfile host="drawio-plugin" modified="2024-01-30T07:26:28.353Z" agent="5.0 (X11; Linux x86_64) AppleWebKit/537.36 (KHTML, like Gecko) Chrome/104.0.5112.102 Safari/537.36" etag="SZPfuVAcUy5okFR6VQL-" version="20.5.3" type="embed" pages="6"><diagram name="UC tổng quát" id="di09vAGiVFg59LXikifo"><mxGraphModel dx="815" dy="951" grid="0" gridSize="10" guides="1" tooltips="1" connect="1" arrows="1" fold="1" page="0" pageScale="1" pageWidth="827" pageHeight="1169" math="0" shadow="0"><root><mxCell id="0"/><mxCell id="1" parent="0"/><mxCell id="r2Sg7sd2z1i_WO2MmYCt-2" value="" style="rounded=0;whiteSpace=wrap;html=1;movable=1;resizable=1;rotatable=1;deletable=1;editable=1;locked=0;connectable=1;dashed=1;glass=0;shadow=0;strokeWidth=3;" parent="1" vertex="1"><mxGeometry x="227" y="-256" width="773" height="584" as="geometry"/></mxCell><mxCell id="dM9VhezT01JsbOEWobKI-5" style="edgeStyle=orthogonalEdgeStyle;rounded=0;orthogonalLoop=1;jettySize=auto;html=1;exitX=0.5;exitY=0.5;exitDx=0;exitDy=0;exitPerimeter=0;entryX=0;entryY=0.5;entryDx=0;entryDy=0;" parent="1" source="r2Sg7sd2z1i_WO2MmYCt-3" target="r2Sg7sd2z1i_WO2MmYCt-12" edge="1"><mxGeometry relative="1" as="geometry"/></mxCell><mxCell id="dM9VhezT01JsbOEWobKI-9" style="edgeStyle=orthogonalEdgeStyle;rounded=0;orthogonalLoop=1;jettySize=auto;html=1;exitX=0.5;exitY=0.5;exitDx=0;exitDy=0;exitPerimeter=0;entryX=0;entryY=0.5;entryDx=0;entryDy=0;" parent="1" source="r2Sg7sd2z1i_WO2MmYCt-3" target="r2Sg7sd2z1i_WO2MmYCt-18" edge="1"><mxGeometry relative="1" as="geometry"/></mxCell><mxCell id="dM9VhezT01JsbOEWobKI-23" style="edgeStyle=orthogonalEdgeStyle;rounded=0;orthogonalLoop=1;jettySize=auto;html=1;exitX=0.75;exitY=0.1;exitDx=0;exitDy=0;exitPerimeter=0;entryX=0;entryY=0.5;entryDx=0;entryDy=0;" parent="1" source="r2Sg7sd2z1i_WO2MmYCt-3" target="r2Sg7sd2z1i_WO2MmYCt-8" edge="1"><mxGeometry relative="1" as="geometry"><Array as="points"><mxPoint x="161" y="-41"/><mxPoint x="161" y="-144"/></Array></mxGeometry></mxCell><mxCell id="frnzNiKJXEf5Rqhh1ULy-15" style="edgeStyle=orthogonalEdgeStyle;rounded=0;orthogonalLoop=1;jettySize=auto;html=1;exitX=0.75;exitY=0.1;exitDx=0;exitDy=0;exitPerimeter=0;entryX=0;entryY=0.5;entryDx=0;entryDy=0;" parent="1" source="r2Sg7sd2z1i_WO2MmYCt-3" target="r2Sg7sd2z1i_WO2MmYCt-10" edge="1"><mxGeometry relative="1" as="geometry"><Array as="points"><mxPoint x="161" y="-41"/><mxPoint x="161" y="-84"/></Array></mxGeometry></mxCell><mxCell id="3vm781uz0emRcJxyJH41-8" style="edgeStyle=orthogonalEdgeStyle;rounded=0;orthogonalLoop=1;jettySize=auto;html=1;exitX=0.5;exitY=0.5;exitDx=0;exitDy=0;exitPerimeter=0;entryX=0;entryY=0.5;entryDx=0;entryDy=0;" parent="1" source="r2Sg7sd2z1i_WO2MmYCt-3" target="3vm781uz0emRcJxyJH41-6" edge="1"><mxGeometry relative="1" as="geometry"/></mxCell><mxCell id="3vm781uz0emRcJxyJH41-10" style="edgeStyle=orthogonalEdgeStyle;rounded=0;orthogonalLoop=1;jettySize=auto;html=1;exitX=0.5;exitY=0.5;exitDx=0;exitDy=0;exitPerimeter=0;entryX=0;entryY=0.5;entryDx=0;entryDy=0;" parent="1" source="r2Sg7sd2z1i_WO2MmYCt-3" target="4tJGZ4n-hU-AiIo_uI5r-1" edge="1"><mxGeometry relative="1" as="geometry"/></mxCell><mxCell id="0Y5xkF1TLv9LdDIJQlnf-19" style="edgeStyle=orthogonalEdgeStyle;rounded=0;orthogonalLoop=1;jettySize=auto;html=1;exitX=1;exitY=1;exitDx=0;exitDy=0;exitPerimeter=0;entryX=0.03;entryY=0.318;entryDx=0;entryDy=0;entryPerimeter=0;" parent="1" source="r2Sg7sd2z1i_WO2MmYCt-3" target="r2Sg7sd2z1i_WO2MmYCt-23" edge="1"><mxGeometry relative="1" as="geometry"><Array as="points"><mxPoint x="295" y="14"/><mxPoint x="295" y="37"/></Array></mxGeometry></mxCell><mxCell id="r2Sg7sd2z1i_WO2MmYCt-3" value="Quản lý cấp cao" style="shape=umlActor;verticalLabelPosition=bottom;verticalAlign=top;html=1;outlineConnect=0;fontSize=14;" parent="1" vertex="1"><mxGeometry x="146" y="-46.5" width="30" height="60" as="geometry"/></mxCell><mxCell id="dM9VhezT01JsbOEWobKI-15" style="edgeStyle=orthogonalEdgeStyle;rounded=0;orthogonalLoop=1;jettySize=auto;html=1;exitX=0.5;exitY=0.5;exitDx=0;exitDy=0;exitPerimeter=0;entryX=0;entryY=0.5;entryDx=0;entryDy=0;" parent="1" source="r2Sg7sd2z1i_WO2MmYCt-4" target="r2Sg7sd2z1i_WO2MmYCt-12" edge="1"><mxGeometry relative="1" as="geometry"/></mxCell><mxCell id="dM9VhezT01JsbOEWobKI-19" style="edgeStyle=orthogonalEdgeStyle;rounded=0;orthogonalLoop=1;jettySize=auto;html=1;exitX=0.5;exitY=0.5;exitDx=0;exitDy=0;exitPerimeter=0;entryX=0;entryY=0.5;entryDx=0;entryDy=0;" parent="1" source="r2Sg7sd2z1i_WO2MmYCt-4" target="r2Sg7sd2z1i_WO2MmYCt-18" edge="1"><mxGeometry relative="1" as="geometry"/></mxCell><mxCell id="3vm781uz0emRcJxyJH41-7" style="edgeStyle=orthogonalEdgeStyle;rounded=0;orthogonalLoop=1;jettySize=auto;html=1;exitX=0.5;exitY=0.5;exitDx=0;exitDy=0;exitPerimeter=0;entryX=0;entryY=0.5;entryDx=0;entryDy=0;" parent="1" source="r2Sg7sd2z1i_WO2MmYCt-4" target="3vm781uz0emRcJxyJH41-6" edge="1"><mxGeometry relative="1" as="geometry"/></mxCell><mxCell id="3vm781uz0emRcJxyJH41-9" style="edgeStyle=orthogonalEdgeStyle;rounded=0;orthogonalLoop=1;jettySize=auto;html=1;exitX=0.5;exitY=0.5;exitDx=0;exitDy=0;exitPerimeter=0;entryX=0;entryY=0.5;entryDx=0;entryDy=0;" parent="1" source="r2Sg7sd2z1i_WO2MmYCt-4" target="4tJGZ4n-hU-AiIo_uI5r-1" edge="1"><mxGeometry relative="1" as="geometry"/></mxCell><mxCell id="0Y5xkF1TLv9LdDIJQlnf-21" style="edgeStyle=orthogonalEdgeStyle;rounded=0;orthogonalLoop=1;jettySize=auto;html=1;exitX=0.5;exitY=0;exitDx=0;exitDy=0;exitPerimeter=0;entryX=0.01;entryY=0.693;entryDx=0;entryDy=0;entryPerimeter=0;" parent="1" source="r2Sg7sd2z1i_WO2MmYCt-4" target="r2Sg7sd2z1i_WO2MmYCt-23" edge="1"><mxGeometry relative="1" as="geometry"><Array as="points"><mxPoint x="180" y="140"/><mxPoint x="180" y="66"/></Array></mxGeometry></mxCell><mxCell id="r2Sg7sd2z1i_WO2MmYCt-4" value="Quản lý chung" style="shape=umlActor;verticalLabelPosition=bottom;verticalAlign=top;html=1;outlineConnect=0;fontSize=14;" parent="1" vertex="1"><mxGeometry x="146" y="140.5" width="30" height="60" as="geometry"/></mxCell><mxCell id="dM9VhezT01JsbOEWobKI-11" style="edgeStyle=orthogonalEdgeStyle;rounded=0;orthogonalLoop=1;jettySize=auto;html=1;exitX=0.5;exitY=0.5;exitDx=0;exitDy=0;exitPerimeter=0;entryX=1;entryY=0.5;entryDx=0;entryDy=0;" parent="1" source="r2Sg7sd2z1i_WO2MmYCt-7" target="r2Sg7sd2z1i_WO2MmYCt-16" edge="1"><mxGeometry relative="1" as="geometry"><Array as="points"><mxPoint x="974" y="51.5"/><mxPoint x="974" y="100.5"/></Array></mxGeometry></mxCell><mxCell id="frnzNiKJXEf5Rqhh1ULy-14" style="edgeStyle=orthogonalEdgeStyle;rounded=0;orthogonalLoop=1;jettySize=auto;html=1;exitX=0.5;exitY=0.5;exitDx=0;exitDy=0;exitPerimeter=0;entryX=1;entryY=0.5;entryDx=0;entryDy=0;" parent="1" source="r2Sg7sd2z1i_WO2MmYCt-7" target="dM9VhezT01JsbOEWobKI-49" edge="1"><mxGeometry relative="1" as="geometry"><Array as="points"><mxPoint x="975" y="50.5"/><mxPoint x="975" y="197.5"/></Array></mxGeometry></mxCell><mxCell id="frnzNiKJXEf5Rqhh1ULy-18" style="edgeStyle=orthogonalEdgeStyle;rounded=0;orthogonalLoop=1;jettySize=auto;html=1;exitX=0.5;exitY=0.5;exitDx=0;exitDy=0;exitPerimeter=0;entryX=1;entryY=0.5;entryDx=0;entryDy=0;" parent="1" source="r2Sg7sd2z1i_WO2MmYCt-7" target="frnzNiKJXEf5Rqhh1ULy-17" edge="1"><mxGeometry relative="1" as="geometry"><Array as="points"><mxPoint x="975" y="50.5"/><mxPoint x="975" y="9.5"/></Array></mxGeometry></mxCell><mxCell id="3vm781uz0emRcJxyJH41-16" style="edgeStyle=orthogonalEdgeStyle;rounded=0;orthogonalLoop=1;jettySize=auto;html=1;exitX=0.5;exitY=0.5;exitDx=0;exitDy=0;exitPerimeter=0;entryX=1;entryY=0.5;entryDx=0;entryDy=0;" parent="1" source="r2Sg7sd2z1i_WO2MmYCt-7" target="3vm781uz0emRcJxyJH41-15" edge="1"><mxGeometry relative="1" as="geometry"><Array as="points"><mxPoint x="975" y="50.5"/><mxPoint x="975" y="-95.5"/></Array></mxGeometry></mxCell><mxCell id="r2Sg7sd2z1i_WO2MmYCt-7" value="Set-top box" style="shape=umlActor;verticalLabelPosition=bottom;verticalAlign=top;html=1;outlineConnect=0;fontSize=14;" parent="1" vertex="1"><mxGeometry x="1039" y="21" width="30" height="60" as="geometry"/></mxCell><mxCell id="0Y5xkF1TLv9LdDIJQlnf-4" style="rounded=0;orthogonalLoop=1;jettySize=auto;html=1;exitX=1;exitY=0.5;exitDx=0;exitDy=0;entryX=0.5;entryY=0;entryDx=0;entryDy=0;dashed=1;" parent="1" source="r2Sg7sd2z1i_WO2MmYCt-8" target="r2Sg7sd2z1i_WO2MmYCt-23" edge="1"><mxGeometry relative="1" as="geometry"><Array as="points"><mxPoint x="553" y="-85"/></Array></mxGeometry></mxCell><mxCell id="r2Sg7sd2z1i_WO2MmYCt-8" value="Quản lý người dùng" style="ellipse;whiteSpace=wrap;html=1;fontSize=14;" parent="1" vertex="1"><mxGeometry x="319" y="-171" width="112" height="52" as="geometry"/></mxCell><mxCell id="0Y5xkF1TLv9LdDIJQlnf-5" style="rounded=0;orthogonalLoop=1;jettySize=auto;html=1;exitX=1;exitY=0.5;exitDx=0;exitDy=0;entryX=0.34;entryY=0.013;entryDx=0;entryDy=0;entryPerimeter=0;dashed=1;" parent="1" source="r2Sg7sd2z1i_WO2MmYCt-10" target="r2Sg7sd2z1i_WO2MmYCt-23" edge="1"><mxGeometry relative="1" as="geometry"><Array as="points"><mxPoint x="549" y="-40"/></Array></mxGeometry></mxCell><mxCell id="r2Sg7sd2z1i_WO2MmYCt-10" value="Quản lý thiết bị" style="ellipse;whiteSpace=wrap;html=1;fontSize=14;" parent="1" vertex="1"><mxGeometry x="319" y="-113" width="114" height="55" as="geometry"/></mxCell><mxCell id="0Y5xkF1TLv9LdDIJQlnf-6" style="rounded=0;orthogonalLoop=1;jettySize=auto;html=1;exitX=1;exitY=0.5;exitDx=0;exitDy=0;entryX=0.216;entryY=0.036;entryDx=0;entryDy=0;entryPerimeter=0;dashed=1;" parent="1" source="r2Sg7sd2z1i_WO2MmYCt-12" target="r2Sg7sd2z1i_WO2MmYCt-23" edge="1"><mxGeometry relative="1" as="geometry"/></mxCell><mxCell id="r2Sg7sd2z1i_WO2MmYCt-12" value="Giám sát hoạt động thiết bị" style="ellipse;whiteSpace=wrap;html=1;fontSize=14;" parent="1" vertex="1"><mxGeometry x="319" y="-47.5" width="141" height="61" as="geometry"/></mxCell><mxCell id="r2Sg7sd2z1i_WO2MmYCt-16" value="Nhận lệnh/chính sách&amp;nbsp;" style="ellipse;whiteSpace=wrap;html=1;fontSize=14;" parent="1" vertex="1"><mxGeometry x="782" y="69.5" width="141" height="61" as="geometry"/></mxCell><mxCell id="0Y5xkF1TLv9LdDIJQlnf-7" style="rounded=0;orthogonalLoop=1;jettySize=auto;html=1;exitX=1;exitY=0.5;exitDx=0;exitDy=0;entryX=0;entryY=1;entryDx=0;entryDy=0;dashed=1;" parent="1" source="r2Sg7sd2z1i_WO2MmYCt-18" target="r2Sg7sd2z1i_WO2MmYCt-23" edge="1"><mxGeometry relative="1" as="geometry"/></mxCell><mxCell id="r2Sg7sd2z1i_WO2MmYCt-18" value="Quản lý ứng dụng" style="ellipse;whiteSpace=wrap;html=1;fontSize=14;" parent="1" vertex="1"><mxGeometry x="319" y="89.5" width="103" height="51" as="geometry"/></mxCell><mxCell id="r2Sg7sd2z1i_WO2MmYCt-23" value="Đăng nhập/Đăng xuất&lt;br style=&quot;font-size: 14px;&quot;&gt;--------------------------------&lt;br style=&quot;font-size: 14px;&quot;&gt;Extension Points" style="ellipse;whiteSpace=wrap;html=1;fontSize=14;" parent="1" vertex="1"><mxGeometry x="551" y="12" width="176" height="77.5" as="geometry"/></mxCell><mxCell id="dM9VhezT01JsbOEWobKI-48" value="&lt;b style=&quot;font-size: 18px;&quot;&gt;&lt;font style=&quot;font-size: 18px;&quot;&gt;Hệ thống quản lý thiết bị đầu cuối Set-top Box (Terminal Management System - TMS)&lt;/font&gt;&lt;/b&gt;" style="text;html=1;strokeColor=none;fillColor=none;align=center;verticalAlign=middle;whiteSpace=wrap;rounded=0;fontFamily=Helvetica;fontSize=18;" parent="1" vertex="1"><mxGeometry x="378.82" y="-230" width="469.37" height="30" as="geometry"/></mxCell><mxCell id="dM9VhezT01JsbOEWobKI-49" value="Thực thi lệnh/chính sách" style="ellipse;whiteSpace=wrap;html=1;fontSize=14;" parent="1" vertex="1"><mxGeometry x="781" y="160.5" width="139" height="74" as="geometry"/></mxCell><mxCell id="frnzNiKJXEf5Rqhh1ULy-17" value="Cập nhật lịch sử hoạt động thiết bị" style="ellipse;whiteSpace=wrap;html=1;fontSize=14;" parent="1" vertex="1"><mxGeometry x="773" y="-22.5" width="148" height="62.5" as="geometry"/></mxCell><mxCell id="0Y5xkF1TLv9LdDIJQlnf-8" style="rounded=0;orthogonalLoop=1;jettySize=auto;html=1;exitX=1;exitY=0.5;exitDx=0;exitDy=0;entryX=0.32;entryY=0.975;entryDx=0;entryDy=0;entryPerimeter=0;dashed=1;" parent="1" source="4tJGZ4n-hU-AiIo_uI5r-1" target="r2Sg7sd2z1i_WO2MmYCt-23" edge="1"><mxGeometry relative="1" as="geometry"><Array as="points"><mxPoint x="562" y="135"/></Array></mxGeometry></mxCell><mxCell id="4tJGZ4n-hU-AiIo_uI5r-1" value="Quản lý chính sách" style="ellipse;whiteSpace=wrap;html=1;fontSize=14;" parent="1" vertex="1"><mxGeometry x="319" y="153.5" width="103" height="51" as="geometry"/></mxCell><mxCell id="0Y5xkF1TLv9LdDIJQlnf-9" style="rounded=0;orthogonalLoop=1;jettySize=auto;html=1;exitX=1;exitY=0.5;exitDx=0;exitDy=0;entryX=0.5;entryY=1;entryDx=0;entryDy=0;dashed=1;" parent="1" source="3vm781uz0emRcJxyJH41-6" target="r2Sg7sd2z1i_WO2MmYCt-23" edge="1"><mxGeometry relative="1" as="geometry"><Array as="points"><mxPoint x="556" y="198"/></Array></mxGeometry></mxCell><mxCell id="3vm781uz0emRcJxyJH41-6" value="Thay đổi mật khẩu" style="ellipse;whiteSpace=wrap;html=1;fontSize=14;" parent="1" vertex="1"><mxGeometry x="319" y="231.5" width="103" height="51" as="geometry"/></mxCell><mxCell id="3vm781uz0emRcJxyJH41-13" value="&amp;lt;&amp;lt;extend&amp;gt;&amp;gt;" style="text;html=1;strokeColor=none;fillColor=none;align=center;verticalAlign=middle;whiteSpace=wrap;rounded=0;rotation=30;fontSize=14;" parent="1" vertex="1"><mxGeometry x="503" y="-124" width="60" height="30" as="geometry"/></mxCell><mxCell id="3vm781uz0emRcJxyJH41-15" value="Đăng ký thông tin thiết bị" style="ellipse;whiteSpace=wrap;html=1;fontSize=14;" parent="1" vertex="1"><mxGeometry x="782" y="-133" width="139" height="74" as="geometry"/></mxCell><mxCell id="0Y5xkF1TLv9LdDIJQlnf-10" value="&amp;lt;&amp;lt;extend&amp;gt;&amp;gt;" style="text;html=1;strokeColor=none;fillColor=none;align=center;verticalAlign=middle;whiteSpace=wrap;rounded=0;rotation=15;fontSize=14;" parent="1" vertex="1"><mxGeometry x="482" y="-83" width="60" height="30" as="geometry"/></mxCell><mxCell id="0Y5xkF1TLv9LdDIJQlnf-14" value="&amp;lt;&amp;lt;extend&amp;gt;&amp;gt;" style="text;html=1;strokeColor=none;fillColor=none;align=center;verticalAlign=middle;whiteSpace=wrap;rounded=0;rotation=15;fontSize=14;" parent="1" vertex="1"><mxGeometry x="482" y="-31.5" width="60" height="30" as="geometry"/></mxCell><mxCell id="0Y5xkF1TLv9LdDIJQlnf-15" value="&amp;lt;&amp;lt;extend&amp;gt;&amp;gt;" style="text;html=1;strokeColor=none;fillColor=none;align=center;verticalAlign=middle;whiteSpace=wrap;rounded=0;rotation=-15;fontSize=14;" parent="1" vertex="1"><mxGeometry x="447" y="73" width="60" height="30" as="geometry"/></mxCell><mxCell id="0Y5xkF1TLv9LdDIJQlnf-17" value="&amp;lt;&amp;lt;extend&amp;gt;&amp;gt;" style="text;html=1;strokeColor=none;fillColor=none;align=center;verticalAlign=middle;whiteSpace=wrap;rounded=0;rotation=-15;fontSize=14;" parent="1" vertex="1"><mxGeometry x="469" y="127" width="60" height="30" as="geometry"/></mxCell><mxCell id="0Y5xkF1TLv9LdDIJQlnf-18" value="&amp;lt;&amp;lt;extend&amp;gt;&amp;gt;" style="text;html=1;strokeColor=none;fillColor=none;align=center;verticalAlign=middle;whiteSpace=wrap;rounded=0;rotation=-30;fontSize=14;" parent="1" vertex="1"><mxGeometry x="485" y="182.5" width="60" height="30" as="geometry"/></mxCell><mxCell id="BxM75H5UyczWdUDfpm5b-1" value="Em thử thay đổi vị trí các actor rồi nhưng mà vẫn không đỡ tình trạng các đường chồng chéo lên nhau ạ&amp;nbsp;" style="text;html=1;strokeColor=none;fillColor=none;align=center;verticalAlign=middle;whiteSpace=wrap;rounded=0;" parent="1" vertex="1"><mxGeometry x="447" y="381" width="358" height="26" as="geometry"/></mxCell></root></mxGraphModel></diagram><diagram id="LgIKOAxt0D0oawDXAkmv" name="Quản lý người dùng"><mxGraphModel dx="1215" dy="1351" grid="0" gridSize="10" guides="1" tooltips="1" connect="1" arrows="1" fold="1" page="0" pageScale="1" pageWidth="827" pageHeight="1169" math="0" shadow="0"><root><mxCell id="0"/><mxCell id="1" parent="0"/><mxCell id="dkmRYPTTILMg6KZFr0lP-1" value="" style="rounded=0;whiteSpace=wrap;html=1;labelBackgroundColor=default;strokeWidth=3;dashed=1;" parent="1" vertex="1"><mxGeometry x="-53" y="-424" width="552" height="484" as="geometry"/></mxCell><mxCell id="NeauLysKhBeqN2Km7UQx-2" style="edgeStyle=orthogonalEdgeStyle;rounded=0;orthogonalLoop=1;jettySize=auto;html=1;exitX=0.5;exitY=0.5;exitDx=0;exitDy=0;exitPerimeter=0;entryX=0;entryY=0.5;entryDx=0;entryDy=0;" parent="1" source="dkmRYPTTILMg6KZFr0lP-2" target="dkmRYPTTILMg6KZFr0lP-4" edge="1"><mxGeometry relative="1" as="geometry"/></mxCell><mxCell id="dkmRYPTTILMg6KZFr0lP-2" value="Quản lý cấp cao" style="shape=umlActor;verticalLabelPosition=bottom;verticalAlign=top;html=1;outlineConnect=0;" parent="1" vertex="1"><mxGeometry x="-161" y="-216" width="30" height="60" as="geometry"/></mxCell><mxCell id="dkmRYPTTILMg6KZFr0lP-4" value="Quản lý người dùng" style="ellipse;whiteSpace=wrap;html=1;" parent="1" vertex="1"><mxGeometry x="-32" y="-226" width="120" height="80" as="geometry"/></mxCell><mxCell id="NeauLysKhBeqN2Km7UQx-3" value="" style="rounded=0;orthogonalLoop=1;jettySize=auto;html=1;exitX=0;exitY=0.5;exitDx=0;exitDy=0;entryX=0.967;entryY=0.375;entryDx=0;entryDy=0;dashed=1;labelBackgroundColor=none;entryPerimeter=0;" parent="1" source="dkmRYPTTILMg6KZFr0lP-5" target="dkmRYPTTILMg6KZFr0lP-4" edge="1"><mxGeometry relative="1" as="geometry"/></mxCell><mxCell id="dkmRYPTTILMg6KZFr0lP-5" value="Tạo tài khoản" style="ellipse;whiteSpace=wrap;html=1;" parent="1" vertex="1"><mxGeometry x="203" y="-391" width="120" height="80" as="geometry"/></mxCell><mxCell id="NeauLysKhBeqN2Km7UQx-4" value="" style="rounded=0;orthogonalLoop=1;jettySize=auto;html=1;exitX=0;exitY=0.5;exitDx=0;exitDy=0;entryX=1;entryY=0.5;entryDx=0;entryDy=0;dashed=1;labelBackgroundColor=none;" parent="1" source="dkmRYPTTILMg6KZFr0lP-6" target="dkmRYPTTILMg6KZFr0lP-4" edge="1"><mxGeometry x="0.1184" y="-2" relative="1" as="geometry"><mxPoint as="offset"/></mxGeometry></mxCell><mxCell id="b-lo26qX-hGVkHsCnKwR-1" value="" style="edgeStyle=orthogonalEdgeStyle;rounded=0;orthogonalLoop=1;jettySize=auto;html=1;exitX=0.5;exitY=0;exitDx=0;exitDy=0;entryX=0.5;entryY=1;entryDx=0;entryDy=0;dashed=1;labelBackgroundColor=none;" parent="1" source="dkmRYPTTILMg6KZFr0lP-6" target="dkmRYPTTILMg6KZFr0lP-5" edge="1"><mxGeometry x="0.0256" relative="1" as="geometry"><mxPoint as="offset"/></mxGeometry></mxCell><mxCell id="dkmRYPTTILMg6KZFr0lP-6" value="Xoá tài khoản" style="ellipse;whiteSpace=wrap;html=1;" parent="1" vertex="1"><mxGeometry x="203" y="-272" width="120" height="80" as="geometry"/></mxCell><mxCell id="NeauLysKhBeqN2Km7UQx-5" value="" style="rounded=0;orthogonalLoop=1;jettySize=auto;html=1;exitX=0;exitY=0.5;exitDx=0;exitDy=0;entryX=0.983;entryY=0.638;entryDx=0;entryDy=0;dashed=1;labelBackgroundColor=none;entryPerimeter=0;" parent="1" source="dkmRYPTTILMg6KZFr0lP-9" target="dkmRYPTTILMg6KZFr0lP-4" edge="1"><mxGeometry relative="1" as="geometry"/></mxCell><mxCell id="b-lo26qX-hGVkHsCnKwR-2" value="" style="edgeStyle=orthogonalEdgeStyle;rounded=0;orthogonalLoop=1;jettySize=auto;html=1;exitX=1;exitY=0.5;exitDx=0;exitDy=0;entryX=1;entryY=0;entryDx=0;entryDy=0;dashed=1;labelBackgroundColor=none;" parent="1" source="dkmRYPTTILMg6KZFr0lP-9" target="dkmRYPTTILMg6KZFr0lP-5" edge="1"><mxGeometry relative="1" as="geometry"><Array as="points"><mxPoint x="402" y="-125"/><mxPoint x="402" y="-379"/></Array></mxGeometry></mxCell><mxCell id="b-lo26qX-hGVkHsCnKwR-4" value="" style="edgeStyle=orthogonalEdgeStyle;rounded=0;orthogonalLoop=1;jettySize=auto;html=1;exitX=0.5;exitY=1;exitDx=0;exitDy=0;entryX=0.5;entryY=0;entryDx=0;entryDy=0;dashed=1;labelBackgroundColor=none;" parent="1" source="dkmRYPTTILMg6KZFr0lP-9" target="NeauLysKhBeqN2Km7UQx-1" edge="1"><mxGeometry relative="1" as="geometry"/></mxCell><mxCell id="dkmRYPTTILMg6KZFr0lP-9" value="Thay đổi mật khẩu" style="ellipse;whiteSpace=wrap;html=1;" parent="1" vertex="1"><mxGeometry x="203" y="-165" width="120" height="80" as="geometry"/></mxCell><mxCell id="NeauLysKhBeqN2Km7UQx-6" value="" style="rounded=0;orthogonalLoop=1;jettySize=auto;html=1;exitX=0;exitY=0.5;exitDx=0;exitDy=0;entryX=0.942;entryY=0.8;entryDx=0;entryDy=0;dashed=1;labelBackgroundColor=none;entryPerimeter=0;" parent="1" source="NeauLysKhBeqN2Km7UQx-1" target="dkmRYPTTILMg6KZFr0lP-4" edge="1"><mxGeometry relative="1" as="geometry"/></mxCell><mxCell id="b-lo26qX-hGVkHsCnKwR-3" value="" style="edgeStyle=orthogonalEdgeStyle;rounded=0;orthogonalLoop=1;jettySize=auto;html=1;exitX=1;exitY=0.5;exitDx=0;exitDy=0;entryX=1;entryY=0.5;entryDx=0;entryDy=0;dashed=1;labelBackgroundColor=none;" parent="1" source="NeauLysKhBeqN2Km7UQx-1" target="dkmRYPTTILMg6KZFr0lP-5" edge="1"><mxGeometry relative="1" as="geometry"><Array as="points"><mxPoint x="452" y="2"/><mxPoint x="452" y="-351"/></Array></mxGeometry></mxCell><mxCell id="NeauLysKhBeqN2Km7UQx-1" value="Tìm kiếm thông tin người dùng" style="ellipse;whiteSpace=wrap;html=1;" parent="1" vertex="1"><mxGeometry x="203" y="-38" width="120" height="80" as="geometry"/></mxCell><mxCell id="HrexA5vWmtKfxgqpesCl-1" value="&amp;lt;&amp;lt;extend&amp;gt;&amp;gt;" style="text;html=1;strokeColor=none;fillColor=none;align=center;verticalAlign=middle;whiteSpace=wrap;rounded=0;rotation=-55;" parent="1" vertex="1"><mxGeometry x="107" y="-296" width="60" height="30" as="geometry"/></mxCell><mxCell id="HrexA5vWmtKfxgqpesCl-4" value="&amp;lt;&amp;lt;extend&amp;gt;&amp;gt;" style="text;html=1;strokeColor=none;fillColor=none;align=center;verticalAlign=middle;whiteSpace=wrap;rounded=0;rotation=-30;" parent="1" vertex="1"><mxGeometry x="121" y="-236" width="60" height="30" as="geometry"/></mxCell><mxCell id="HrexA5vWmtKfxgqpesCl-5" value="&amp;lt;&amp;lt;extend&amp;gt;&amp;gt;" style="text;html=1;strokeColor=none;fillColor=none;align=center;verticalAlign=middle;whiteSpace=wrap;rounded=0;rotation=15;" parent="1" vertex="1"><mxGeometry x="129" y="-171" width="60" height="30" as="geometry"/></mxCell><mxCell id="HrexA5vWmtKfxgqpesCl-6" value="&amp;lt;&amp;lt;extend&amp;gt;&amp;gt;" style="text;html=1;strokeColor=none;fillColor=none;align=center;verticalAlign=middle;whiteSpace=wrap;rounded=0;rotation=45;" parent="1" vertex="1"><mxGeometry x="129" y="-92" width="60" height="30" as="geometry"/></mxCell><mxCell id="HrexA5vWmtKfxgqpesCl-7" value="&amp;lt;&amp;lt;include&amp;gt;&amp;gt;" style="text;html=1;strokeColor=none;fillColor=none;align=center;verticalAlign=middle;whiteSpace=wrap;rounded=0;rotation=0;" parent="1" vertex="1"><mxGeometry x="272" y="-302" width="60" height="30" as="geometry"/></mxCell><mxCell id="HrexA5vWmtKfxgqpesCl-8" value="&amp;lt;&amp;lt;include&amp;gt;&amp;gt;" style="text;html=1;strokeColor=none;fillColor=none;align=center;verticalAlign=middle;whiteSpace=wrap;rounded=0;rotation=0;" parent="1" vertex="1"><mxGeometry x="272" y="-76" width="60" height="30" as="geometry"/></mxCell><mxCell id="HrexA5vWmtKfxgqpesCl-10" value="&amp;lt;&amp;lt;include&amp;gt;&amp;gt;" style="text;html=1;strokeColor=none;fillColor=none;align=center;verticalAlign=middle;whiteSpace=wrap;rounded=0;rotation=-90;" parent="1" vertex="1"><mxGeometry x="363" y="-247" width="60" height="30" as="geometry"/></mxCell><mxCell id="HrexA5vWmtKfxgqpesCl-11" value="&amp;lt;&amp;lt;include&amp;gt;&amp;gt;" style="text;html=1;strokeColor=none;fillColor=none;align=center;verticalAlign=middle;whiteSpace=wrap;rounded=0;rotation=-90;" parent="1" vertex="1"><mxGeometry x="414" y="-171" width="60" height="30" as="geometry"/></mxCell></root></mxGraphModel></diagram><diagram id="AjoM7Y0H4oyNvN3K5IaZ" name="Quản lý thiết bị sản xuất">&#xa;    <mxGraphModel grid="0" page="0" gridSize="10" guides="1" tooltips="1" connect="1" arrows="1" fold="1" pageScale="1" pageWidth="827" pageHeight="1169" math="0" shadow="0">&#xa;      <root>&#xa;        <mxCell id="0"/>&#xa;        <mxCell id="1" parent="0"/>&#xa;        <mxCell id="IZhsevYoQ1fc0QMSx_Wd-1" value="" style="rounded=0;whiteSpace=wrap;html=1;labelBackgroundColor=default;strokeWidth=3;dashed=1;" vertex="1" parent="1">&#xa;          <mxGeometry x="-78" y="-444" width="909" height="635" as="geometry"/>&#xa;        </mxCell>&#xa;        <mxCell id="IZhsevYoQ1fc0QMSx_Wd-2" style="edgeStyle=orthogonalEdgeStyle;rounded=0;orthogonalLoop=1;jettySize=auto;html=1;exitX=0.5;exitY=0.5;exitDx=0;exitDy=0;exitPerimeter=0;entryX=0;entryY=0.5;entryDx=0;entryDy=0;fontSize=13;" edge="1" parent="1" source="IZhsevYoQ1fc0QMSx_Wd-3" target="IZhsevYoQ1fc0QMSx_Wd-4">&#xa;          <mxGeometry relative="1" as="geometry"/>&#xa;        </mxCell>&#xa;        <mxCell id="IZhsevYoQ1fc0QMSx_Wd-3" value="Quản lý" style="shape=umlActor;verticalLabelPosition=bottom;verticalAlign=top;html=1;outlineConnect=0;fontSize=13;" vertex="1" parent="1">&#xa;          <mxGeometry x="-208" y="-216" width="30" height="60" as="geometry"/>&#xa;        </mxCell>&#xa;        <mxCell id="IZhsevYoQ1fc0QMSx_Wd-4" value="Quản lý thiết bị" style="ellipse;whiteSpace=wrap;html=1;fontSize=13;" vertex="1" parent="1">&#xa;          <mxGeometry x="-32" y="-226" width="120" height="80" as="geometry"/>&#xa;        </mxCell>&#xa;        <mxCell id="IZhsevYoQ1fc0QMSx_Wd-5" value="" style="rounded=0;orthogonalLoop=1;jettySize=auto;html=1;exitX=0;exitY=0.5;exitDx=0;exitDy=0;entryX=1;entryY=0.5;entryDx=0;entryDy=0;dashed=1;labelBackgroundColor=none;fontSize=13;" edge="1" parent="1" source="IZhsevYoQ1fc0QMSx_Wd-6" target="IZhsevYoQ1fc0QMSx_Wd-4">&#xa;          <mxGeometry relative="1" as="geometry"/>&#xa;        </mxCell>&#xa;        <mxCell id="IZhsevYoQ1fc0QMSx_Wd-6" value="Quản lý thiết bị" style="ellipse;whiteSpace=wrap;html=1;fontSize=13;" vertex="1" parent="1">&#xa;          <mxGeometry x="203" y="-321" width="120" height="80" as="geometry"/>&#xa;        </mxCell>&#xa;        <mxCell id="IZhsevYoQ1fc0QMSx_Wd-7" value="" style="rounded=0;orthogonalLoop=1;jettySize=auto;html=1;exitX=0;exitY=0.5;exitDx=0;exitDy=0;entryX=1;entryY=0.5;entryDx=0;entryDy=0;dashed=1;labelBackgroundColor=none;fontSize=13;" edge="1" parent="1" source="IZhsevYoQ1fc0QMSx_Wd-8" target="IZhsevYoQ1fc0QMSx_Wd-4">&#xa;          <mxGeometry relative="1" as="geometry"/>&#xa;        </mxCell>&#xa;        <mxCell id="IZhsevYoQ1fc0QMSx_Wd-8" value="Quản lý danh sách thiết bị&amp;nbsp;" style="ellipse;whiteSpace=wrap;html=1;fontSize=13;" vertex="1" parent="1">&#xa;          <mxGeometry x="188.5" y="-10" width="149" height="72" as="geometry"/>&#xa;        </mxCell>&#xa;        <mxCell id="IZhsevYoQ1fc0QMSx_Wd-18" value="" style="rounded=0;orthogonalLoop=1;jettySize=auto;html=1;exitX=0;exitY=0.5;exitDx=0;exitDy=0;entryX=0.925;entryY=0.25;entryDx=0;entryDy=0;dashed=1;labelBackgroundColor=none;entryPerimeter=0;fontSize=13;" edge="1" parent="1" source="IZhsevYoQ1fc0QMSx_Wd-10" target="IZhsevYoQ1fc0QMSx_Wd-6">&#xa;          <mxGeometry relative="1" as="geometry">&#xa;            <Array as="points">&#xa;              <mxPoint x="382" y="-353"/>&#xa;            </Array>&#xa;          </mxGeometry>&#xa;        </mxCell>&#xa;        <mxCell id="IZhsevYoQ1fc0QMSx_Wd-10" value="Thêm mô tả thiết bị" style="ellipse;whiteSpace=wrap;html=1;fontSize=13;" vertex="1" parent="1">&#xa;          <mxGeometry x="441" y="-422" width="127" height="57" as="geometry"/>&#xa;        </mxCell>&#xa;        <mxCell id="IZhsevYoQ1fc0QMSx_Wd-12" value="Tìm kiếm thông tin" style="ellipse;whiteSpace=wrap;html=1;fontSize=13;" vertex="1" parent="1">&#xa;          <mxGeometry x="683" y="-175" width="120" height="80" as="geometry"/>&#xa;        </mxCell>&#xa;        <mxCell id="IZhsevYoQ1fc0QMSx_Wd-19" value="" style="rounded=0;orthogonalLoop=1;jettySize=auto;html=1;exitX=0;exitY=0.5;exitDx=0;exitDy=0;dashed=1;labelBackgroundColor=none;entryX=0.975;entryY=0.363;entryDx=0;entryDy=0;entryPerimeter=0;fontSize=13;" edge="1" parent="1" source="IZhsevYoQ1fc0QMSx_Wd-13" target="IZhsevYoQ1fc0QMSx_Wd-6">&#xa;          <mxGeometry relative="1" as="geometry">&#xa;            <mxPoint x="326" y="-291" as="targetPoint"/>&#xa;          </mxGeometry>&#xa;        </mxCell>&#xa;        <mxCell id="IZhsevYoQ1fc0QMSx_Wd-31" value="" style="rounded=0;orthogonalLoop=1;jettySize=auto;html=1;exitX=1;exitY=0.5;exitDx=0;exitDy=0;entryX=0;entryY=0;entryDx=0;entryDy=0;labelBackgroundColor=none;dashed=1;fontSize=13;" edge="1" parent="1" source="IZhsevYoQ1fc0QMSx_Wd-13" target="IZhsevYoQ1fc0QMSx_Wd-12">&#xa;          <mxGeometry relative="1" as="geometry">&#xa;            <Array as="points">&#xa;              <mxPoint x="662" y="-271"/>&#xa;            </Array>&#xa;          </mxGeometry>&#xa;        </mxCell>&#xa;        <mxCell id="IZhsevYoQ1fc0QMSx_Wd-13" value="Chỉnh sửa mô tả thiết bị&amp;nbsp;" style="ellipse;whiteSpace=wrap;html=1;fontSize=13;" vertex="1" parent="1">&#xa;          <mxGeometry x="438.5" y="-355" width="126" height="59" as="geometry"/>&#xa;        </mxCell>&#xa;        <mxCell id="IZhsevYoQ1fc0QMSx_Wd-20" value="" style="rounded=0;orthogonalLoop=1;jettySize=auto;html=1;exitX=0;exitY=0.5;exitDx=0;exitDy=0;entryX=1;entryY=0.5;entryDx=0;entryDy=0;dashed=1;labelBackgroundColor=none;fontSize=13;" edge="1" parent="1" source="IZhsevYoQ1fc0QMSx_Wd-14" target="IZhsevYoQ1fc0QMSx_Wd-6">&#xa;          <mxGeometry relative="1" as="geometry"/>&#xa;        </mxCell>&#xa;        <mxCell id="IZhsevYoQ1fc0QMSx_Wd-32" value="" style="rounded=0;orthogonalLoop=1;jettySize=auto;html=1;exitX=1;exitY=0.5;exitDx=0;exitDy=0;entryX=0;entryY=0.325;entryDx=0;entryDy=0;dashed=1;labelBackgroundColor=none;entryPerimeter=0;fontSize=13;" edge="1" parent="1" source="IZhsevYoQ1fc0QMSx_Wd-14" target="IZhsevYoQ1fc0QMSx_Wd-12">&#xa;          <mxGeometry relative="1" as="geometry">&#xa;            <Array as="points"/>&#xa;          </mxGeometry>&#xa;        </mxCell>&#xa;        <mxCell id="IZhsevYoQ1fc0QMSx_Wd-14" value="Xoá mô tả thiết bị" style="ellipse;whiteSpace=wrap;html=1;fontSize=13;" vertex="1" parent="1">&#xa;          <mxGeometry x="441" y="-286" width="123.5" height="62" as="geometry"/>&#xa;        </mxCell>&#xa;        <mxCell id="IZhsevYoQ1fc0QMSx_Wd-16" value="" style="rounded=0;orthogonalLoop=1;jettySize=auto;html=1;exitX=1;exitY=0.5;exitDx=0;exitDy=0;entryX=0;entryY=0.5;entryDx=0;entryDy=0;dashed=1;labelBackgroundColor=none;fontSize=13;" edge="1" parent="1" source="IZhsevYoQ1fc0QMSx_Wd-15" target="IZhsevYoQ1fc0QMSx_Wd-12">&#xa;          <mxGeometry relative="1" as="geometry"/>&#xa;        </mxCell>&#xa;        <mxCell id="IZhsevYoQ1fc0QMSx_Wd-21" value="" style="rounded=0;orthogonalLoop=1;jettySize=auto;html=1;exitX=0;exitY=0.5;exitDx=0;exitDy=0;entryX=0.983;entryY=0.638;entryDx=0;entryDy=0;dashed=1;labelBackgroundColor=none;entryPerimeter=0;fontSize=13;" edge="1" parent="1" source="IZhsevYoQ1fc0QMSx_Wd-15" target="IZhsevYoQ1fc0QMSx_Wd-6">&#xa;          <mxGeometry relative="1" as="geometry">&#xa;            <Array as="points">&#xa;              <mxPoint x="376" y="-217"/>&#xa;            </Array>&#xa;          </mxGeometry>&#xa;        </mxCell>&#xa;        <mxCell id="IZhsevYoQ1fc0QMSx_Wd-15" value="Xem thông tin thiết bị" style="ellipse;whiteSpace=wrap;html=1;fontSize=13;" vertex="1" parent="1">&#xa;          <mxGeometry x="435.25" y="-214" width="135" height="66" as="geometry"/>&#xa;        </mxCell>&#xa;        <mxCell id="IZhsevYoQ1fc0QMSx_Wd-22" value="" style="rounded=0;orthogonalLoop=1;jettySize=auto;html=1;exitX=0;exitY=0.5;exitDx=0;exitDy=0;entryX=0.95;entryY=0.278;entryDx=0;entryDy=0;dashed=1;labelBackgroundColor=none;entryPerimeter=0;fontSize=13;" edge="1" parent="1" source="IZhsevYoQ1fc0QMSx_Wd-23" target="IZhsevYoQ1fc0QMSx_Wd-8">&#xa;          <mxGeometry relative="1" as="geometry">&#xa;            <mxPoint x="357" y="27" as="targetPoint"/>&#xa;            <Array as="points">&#xa;              <mxPoint x="378" y="-44"/>&#xa;            </Array>&#xa;          </mxGeometry>&#xa;        </mxCell>&#xa;        <mxCell id="IZhsevYoQ1fc0QMSx_Wd-23" value="Thêm danh sách thiết bị" style="ellipse;whiteSpace=wrap;html=1;fontSize=13;" vertex="1" parent="1">&#xa;          <mxGeometry x="439" y="-106" width="127" height="57" as="geometry"/>&#xa;        </mxCell>&#xa;        <mxCell id="IZhsevYoQ1fc0QMSx_Wd-24" value="" style="rounded=0;orthogonalLoop=1;jettySize=auto;html=1;exitX=0;exitY=0.5;exitDx=0;exitDy=0;entryX=1;entryY=0.5;entryDx=0;entryDy=0;dashed=1;labelBackgroundColor=none;fontSize=13;" edge="1" parent="1" source="IZhsevYoQ1fc0QMSx_Wd-25" target="IZhsevYoQ1fc0QMSx_Wd-8">&#xa;          <mxGeometry relative="1" as="geometry">&#xa;            <mxPoint x="357" y="27" as="targetPoint"/>&#xa;          </mxGeometry>&#xa;        </mxCell>&#xa;        <mxCell id="IZhsevYoQ1fc0QMSx_Wd-33" value="" style="rounded=0;orthogonalLoop=1;jettySize=auto;html=1;exitX=1;exitY=0.5;exitDx=0;exitDy=0;entryX=0;entryY=0.6;entryDx=0;entryDy=0;dashed=1;labelBackgroundColor=none;entryPerimeter=0;fontSize=13;" edge="1" parent="1" source="IZhsevYoQ1fc0QMSx_Wd-25" target="IZhsevYoQ1fc0QMSx_Wd-12">&#xa;          <mxGeometry relative="1" as="geometry"/>&#xa;        </mxCell>&#xa;        <mxCell id="IZhsevYoQ1fc0QMSx_Wd-25" value="Chỉnh sửa danh sách thiết bị" style="ellipse;whiteSpace=wrap;html=1;fontSize=13;" vertex="1" parent="1">&#xa;          <mxGeometry x="436.5" y="-39" width="126" height="59" as="geometry"/>&#xa;        </mxCell>&#xa;        <mxCell id="IZhsevYoQ1fc0QMSx_Wd-26" value="" style="rounded=0;orthogonalLoop=1;jettySize=auto;html=1;exitX=0;exitY=0.5;exitDx=0;exitDy=0;entryX=0.997;entryY=0.667;entryDx=0;entryDy=0;dashed=1;labelBackgroundColor=none;entryPerimeter=0;fontSize=13;" edge="1" parent="1" source="IZhsevYoQ1fc0QMSx_Wd-27" target="IZhsevYoQ1fc0QMSx_Wd-8">&#xa;          <mxGeometry relative="1" as="geometry">&#xa;            <mxPoint x="357" y="27" as="targetPoint"/>&#xa;          </mxGeometry>&#xa;        </mxCell>&#xa;        <mxCell id="IZhsevYoQ1fc0QMSx_Wd-34" value="" style="rounded=0;orthogonalLoop=1;jettySize=auto;html=1;exitX=1;exitY=0.5;exitDx=0;exitDy=0;entryX=0.025;entryY=0.763;entryDx=0;entryDy=0;dashed=1;labelBackgroundColor=none;entryPerimeter=0;fontSize=13;" edge="1" parent="1" source="IZhsevYoQ1fc0QMSx_Wd-27" target="IZhsevYoQ1fc0QMSx_Wd-12">&#xa;          <mxGeometry relative="1" as="geometry">&#xa;            <Array as="points">&#xa;              <mxPoint x="640" y="-28"/>&#xa;            </Array>&#xa;          </mxGeometry>&#xa;        </mxCell>&#xa;        <mxCell id="IZhsevYoQ1fc0QMSx_Wd-27" value="Xoá danh sách thiết bị" style="ellipse;whiteSpace=wrap;html=1;fontSize=13;" vertex="1" parent="1">&#xa;          <mxGeometry x="439" y="30" width="142" height="57" as="geometry"/>&#xa;        </mxCell>&#xa;        <mxCell id="IZhsevYoQ1fc0QMSx_Wd-28" value="" style="rounded=0;orthogonalLoop=1;jettySize=auto;html=1;exitX=0;exitY=0.5;exitDx=0;exitDy=0;entryX=0.943;entryY=0.806;entryDx=0;entryDy=0;dashed=1;labelBackgroundColor=none;entryPerimeter=0;fontSize=13;" edge="1" parent="1" source="IZhsevYoQ1fc0QMSx_Wd-29" target="IZhsevYoQ1fc0QMSx_Wd-8">&#xa;          <mxGeometry x="0.0076" relative="1" as="geometry">&#xa;            <mxPoint x="357" y="27" as="targetPoint"/>&#xa;            <Array as="points">&#xa;              <mxPoint x="379" y="95"/>&#xa;            </Array>&#xa;            <mxPoint as="offset"/>&#xa;          </mxGeometry>&#xa;        </mxCell>&#xa;        <mxCell id="IZhsevYoQ1fc0QMSx_Wd-30" value="" style="rounded=0;orthogonalLoop=1;jettySize=auto;html=1;exitX=1;exitY=0.5;exitDx=0;exitDy=0;entryX=0;entryY=1;entryDx=0;entryDy=0;dashed=1;labelBackgroundColor=none;fontSize=13;" edge="1" parent="1" source="IZhsevYoQ1fc0QMSx_Wd-29" target="IZhsevYoQ1fc0QMSx_Wd-12">&#xa;          <mxGeometry relative="1" as="geometry">&#xa;            <Array as="points">&#xa;              <mxPoint x="678" y="16"/>&#xa;            </Array>&#xa;          </mxGeometry>&#xa;        </mxCell>&#xa;        <mxCell id="IZhsevYoQ1fc0QMSx_Wd-29" value="Xem danh sách thiết bị" style="ellipse;whiteSpace=wrap;html=1;" vertex="1" parent="1">&#xa;          <mxGeometry x="439" y="101" width="135" height="66" as="geometry"/>&#xa;        </mxCell>&#xa;        <mxCell id="xAcs6oSbtLrW_Er_jT2X-1" value="&amp;lt;&amp;lt;extend&amp;gt;&amp;gt;" style="text;html=1;strokeColor=none;fillColor=none;align=center;verticalAlign=middle;whiteSpace=wrap;rounded=0;rotation=60;fontSize=13;" vertex="1" parent="1">&#xa;          <mxGeometry x="123" y="-92.5" width="60" height="30" as="geometry"/>&#xa;        </mxCell>&#xa;        <mxCell id="xAcs6oSbtLrW_Er_jT2X-2" value="&amp;lt;&amp;lt;extend&amp;gt;&amp;gt;" style="text;html=1;strokeColor=none;fillColor=none;align=center;verticalAlign=middle;whiteSpace=wrap;rounded=0;rotation=-45;fontSize=13;" vertex="1" parent="1">&#xa;          <mxGeometry x="106" y="-256" width="60" height="30" as="geometry"/>&#xa;        </mxCell>&#xa;        <mxCell id="xAcs6oSbtLrW_Er_jT2X-4" value="&amp;lt;&amp;lt;extend&amp;gt;&amp;gt;" style="text;html=1;strokeColor=none;fillColor=none;align=center;verticalAlign=middle;whiteSpace=wrap;rounded=0;rotation=-30;fontSize=13;" vertex="1" parent="1">&#xa;          <mxGeometry x="346.5" y="-374" width="60" height="30" as="geometry"/>&#xa;        </mxCell>&#xa;        <mxCell id="xAcs6oSbtLrW_Er_jT2X-5" value="&amp;lt;&amp;lt;extend&amp;gt;&amp;gt;" style="text;html=1;strokeColor=none;fillColor=none;align=center;verticalAlign=middle;whiteSpace=wrap;rounded=0;rotation=-15;fontSize=13;" vertex="1" parent="1">&#xa;          <mxGeometry x="359" y="-335" width="60" height="30" as="geometry"/>&#xa;        </mxCell>&#xa;        <mxCell id="xAcs6oSbtLrW_Er_jT2X-6" value="&amp;lt;&amp;lt;extend&amp;gt;&amp;gt;" style="text;html=1;strokeColor=none;fillColor=none;align=center;verticalAlign=middle;whiteSpace=wrap;rounded=0;rotation=15;fontSize=13;" vertex="1" parent="1">&#xa;          <mxGeometry x="363" y="-289" width="60" height="30" as="geometry"/>&#xa;        </mxCell>&#xa;        <mxCell id="xAcs6oSbtLrW_Er_jT2X-8" value="&amp;lt;&amp;lt;extend&amp;gt;&amp;gt;" style="text;html=1;strokeColor=none;fillColor=none;align=center;verticalAlign=middle;whiteSpace=wrap;rounded=0;rotation=30;fontSize=13;" vertex="1" parent="1">&#xa;          <mxGeometry x="361" y="-237" width="60" height="30" as="geometry"/>&#xa;        </mxCell>&#xa;        <mxCell id="xAcs6oSbtLrW_Er_jT2X-10" value="&amp;lt;&amp;lt;extend&amp;gt;&amp;gt;" style="text;html=1;strokeColor=none;fillColor=none;align=center;verticalAlign=middle;whiteSpace=wrap;rounded=0;rotation=-30;fontSize=13;" vertex="1" parent="1">&#xa;          <mxGeometry x="357" y="-75" width="60" height="30" as="geometry"/>&#xa;        </mxCell>&#xa;        <mxCell id="xAcs6oSbtLrW_Er_jT2X-11" value="&amp;lt;&amp;lt;extend&amp;gt;&amp;gt;" style="text;html=1;strokeColor=none;fillColor=none;align=center;verticalAlign=middle;whiteSpace=wrap;rounded=0;rotation=-15;fontSize=13;" vertex="1" parent="1">&#xa;          <mxGeometry x="361" y="-17" width="60" height="30" as="geometry"/>&#xa;        </mxCell>&#xa;        <mxCell id="xAcs6oSbtLrW_Er_jT2X-12" value="&amp;lt;&amp;lt;extend&amp;gt;&amp;gt;" style="text;html=1;strokeColor=none;fillColor=none;align=center;verticalAlign=middle;whiteSpace=wrap;rounded=0;rotation=15;fontSize=13;" vertex="1" parent="1">&#xa;          <mxGeometry x="367" y="25" width="60" height="30" as="geometry"/>&#xa;        </mxCell>&#xa;        <mxCell id="xAcs6oSbtLrW_Er_jT2X-13" value="&amp;lt;&amp;lt;extend&amp;gt;&amp;gt;" style="text;html=1;strokeColor=none;fillColor=none;align=center;verticalAlign=middle;whiteSpace=wrap;rounded=0;rotation=30;fontSize=13;" vertex="1" parent="1">&#xa;          <mxGeometry x="370" y="81" width="60" height="30" as="geometry"/>&#xa;        </mxCell>&#xa;        <mxCell id="xAcs6oSbtLrW_Er_jT2X-15" value="&amp;lt;&amp;lt;include&amp;gt;&amp;gt;" style="text;html=1;strokeColor=none;fillColor=none;align=center;verticalAlign=middle;whiteSpace=wrap;rounded=0;rotation=30;fontSize=13;" vertex="1" parent="1">&#xa;          <mxGeometry x="600" y="-316" width="60" height="30" as="geometry"/>&#xa;        </mxCell>&#xa;        <mxCell id="xAcs6oSbtLrW_Er_jT2X-16" value="&amp;lt;&amp;lt;include&amp;gt;&amp;gt;" style="text;html=1;strokeColor=none;fillColor=none;align=center;verticalAlign=middle;whiteSpace=wrap;rounded=0;rotation=45;fontSize=13;" vertex="1" parent="1">&#xa;          <mxGeometry x="594" y="-228" width="60" height="30" as="geometry"/>&#xa;        </mxCell>&#xa;        <mxCell id="xAcs6oSbtLrW_Er_jT2X-18" value="&amp;lt;&amp;lt;include&amp;gt;&amp;gt;" style="text;html=1;strokeColor=none;fillColor=none;align=center;verticalAlign=middle;whiteSpace=wrap;rounded=0;rotation=15;fontSize=13;" vertex="1" parent="1">&#xa;          <mxGeometry x="587" y="-188" width="60" height="30" as="geometry"/>&#xa;        </mxCell>&#xa;        <mxCell id="xAcs6oSbtLrW_Er_jT2X-21" value="&amp;lt;&amp;lt;include&amp;gt;&amp;gt;" style="text;html=1;strokeColor=none;fillColor=none;align=center;verticalAlign=middle;whiteSpace=wrap;rounded=0;rotation=-45;fontSize=13;" vertex="1" parent="1">&#xa;          <mxGeometry x="587" y="-92.5" width="60" height="30" as="geometry"/>&#xa;        </mxCell>&#xa;        <mxCell id="xAcs6oSbtLrW_Er_jT2X-22" value="&amp;lt;&amp;lt;include&amp;gt;&amp;gt;" style="text;html=1;strokeColor=none;fillColor=none;align=center;verticalAlign=middle;whiteSpace=wrap;rounded=0;rotation=-60;fontSize=13;" vertex="1" parent="1">&#xa;          <mxGeometry x="587" y="-24.5" width="60" height="30" as="geometry"/>&#xa;        </mxCell>&#xa;        <mxCell id="xAcs6oSbtLrW_Er_jT2X-23" value="&amp;lt;&amp;lt;include&amp;gt;&amp;gt;" style="text;html=1;strokeColor=none;fillColor=none;align=center;verticalAlign=middle;whiteSpace=wrap;rounded=0;rotation=-45;fontSize=13;" vertex="1" parent="1">&#xa;          <mxGeometry x="606" y="34" width="60" height="30" as="geometry"/>&#xa;        </mxCell>&#xa;      </root>&#xa;    </mxGraphModel>&#xa;  </diagram><diagram id="aQmytQHQtAw-5MnbO_GA" name="Quản lý chính sách">&#xa;    <mxGraphModel grid="0" page="0" gridSize="10" guides="1" tooltips="1" connect="1" arrows="1" fold="1" pageScale="1" pageWidth="827" pageHeight="1169" math="0" shadow="0">&#xa;      <root>&#xa;        <mxCell id="0"/>&#xa;        <mxCell id="1" parent="0"/>&#xa;        <mxCell id="rds3YLK9paXWLcEGhgOw-1" value="" style="rounded=0;whiteSpace=wrap;html=1;labelBackgroundColor=default;strokeWidth=3;dashed=1;fontSize=14;" vertex="1" parent="1">&#xa;          <mxGeometry x="-75" y="-535" width="909" height="725" as="geometry"/>&#xa;        </mxCell>&#xa;        <mxCell id="rds3YLK9paXWLcEGhgOw-2" style="edgeStyle=orthogonalEdgeStyle;rounded=0;orthogonalLoop=1;jettySize=auto;html=1;exitX=0.5;exitY=0.5;exitDx=0;exitDy=0;exitPerimeter=0;entryX=0;entryY=0.5;entryDx=0;entryDy=0;fontSize=14;" edge="1" parent="1" source="rds3YLK9paXWLcEGhgOw-3" target="rds3YLK9paXWLcEGhgOw-4">&#xa;          <mxGeometry relative="1" as="geometry"/>&#xa;        </mxCell>&#xa;        <mxCell id="rds3YLK9paXWLcEGhgOw-3" value="Quản lý" style="shape=umlActor;verticalLabelPosition=bottom;verticalAlign=top;html=1;outlineConnect=0;fontSize=14;" vertex="1" parent="1">&#xa;          <mxGeometry x="-208" y="-216" width="30" height="60" as="geometry"/>&#xa;        </mxCell>&#xa;        <mxCell id="rds3YLK9paXWLcEGhgOw-4" value="Quản lý chính sách" style="ellipse;whiteSpace=wrap;html=1;fontSize=14;" vertex="1" parent="1">&#xa;          <mxGeometry x="-32" y="-226" width="120" height="80" as="geometry"/>&#xa;        </mxCell>&#xa;        <mxCell id="rds3YLK9paXWLcEGhgOw-5" value="" style="rounded=0;orthogonalLoop=1;jettySize=auto;html=1;exitX=0;exitY=0.5;exitDx=0;exitDy=0;entryX=1;entryY=0.5;entryDx=0;entryDy=0;dashed=1;labelBackgroundColor=none;fontSize=14;" edge="1" parent="1" source="rds3YLK9paXWLcEGhgOw-6" target="rds3YLK9paXWLcEGhgOw-4">&#xa;          <mxGeometry relative="1" as="geometry"/>&#xa;        </mxCell>&#xa;        <mxCell id="rds3YLK9paXWLcEGhgOw-6" value="Quản lý file APK" style="ellipse;whiteSpace=wrap;html=1;fontSize=14;" vertex="1" parent="1">&#xa;          <mxGeometry x="203" y="-321" width="120" height="80" as="geometry"/>&#xa;        </mxCell>&#xa;        <mxCell id="rds3YLK9paXWLcEGhgOw-7" value="" style="rounded=0;orthogonalLoop=1;jettySize=auto;html=1;exitX=0;exitY=0.5;exitDx=0;exitDy=0;entryX=1;entryY=0.5;entryDx=0;entryDy=0;dashed=1;labelBackgroundColor=none;fontSize=14;" edge="1" parent="1" source="rds3YLK9paXWLcEGhgOw-8" target="rds3YLK9paXWLcEGhgOw-4">&#xa;          <mxGeometry relative="1" as="geometry"/>&#xa;        </mxCell>&#xa;        <mxCell id="rds3YLK9paXWLcEGhgOw-8" value="Quản lý chính sách cài đặt/gỡ cài đặt" style="ellipse;whiteSpace=wrap;html=1;fontSize=14;" vertex="1" parent="1">&#xa;          <mxGeometry x="188.5" y="-10" width="149" height="72" as="geometry"/>&#xa;        </mxCell>&#xa;        <mxCell id="rds3YLK9paXWLcEGhgOw-9" value="" style="rounded=0;orthogonalLoop=1;jettySize=auto;html=1;exitX=0;exitY=0.5;exitDx=0;exitDy=0;entryX=0.983;entryY=0.313;entryDx=0;entryDy=0;dashed=1;labelBackgroundColor=none;entryPerimeter=0;fontSize=14;" edge="1" parent="1" source="rds3YLK9paXWLcEGhgOw-10" target="rds3YLK9paXWLcEGhgOw-6">&#xa;          <mxGeometry x="-0.0301" y="-3" relative="1" as="geometry">&#xa;            <Array as="points">&#xa;              <mxPoint x="388" y="-447"/>&#xa;            </Array>&#xa;            <mxPoint as="offset"/>&#xa;          </mxGeometry>&#xa;        </mxCell>&#xa;        <mxCell id="rds3YLK9paXWLcEGhgOw-10" value="Tải lên file APK" style="ellipse;whiteSpace=wrap;html=1;fontSize=14;" vertex="1" parent="1">&#xa;          <mxGeometry x="441" y="-497" width="127" height="57" as="geometry"/>&#xa;        </mxCell>&#xa;        <mxCell id="rds3YLK9paXWLcEGhgOw-11" value="Tìm kiếm thông tin" style="ellipse;whiteSpace=wrap;html=1;fontSize=14;" vertex="1" parent="1">&#xa;          <mxGeometry x="683" y="-175" width="120" height="80" as="geometry"/>&#xa;        </mxCell>&#xa;        <mxCell id="rds3YLK9paXWLcEGhgOw-12" value="" style="rounded=0;orthogonalLoop=1;jettySize=auto;html=1;exitX=0;exitY=0.5;exitDx=0;exitDy=0;entryX=1;entryY=0.5;entryDx=0;entryDy=0;dashed=1;labelBackgroundColor=none;fontSize=14;" edge="1" parent="1" source="rds3YLK9paXWLcEGhgOw-14" target="rds3YLK9paXWLcEGhgOw-6">&#xa;          <mxGeometry relative="1" as="geometry">&#xa;            <Array as="points">&#xa;              <mxPoint x="411" y="-390"/>&#xa;            </Array>&#xa;          </mxGeometry>&#xa;        </mxCell>&#xa;        <mxCell id="rds3YLK9paXWLcEGhgOw-13" value="" style="rounded=0;orthogonalLoop=1;jettySize=auto;html=1;exitX=1;exitY=0.5;exitDx=0;exitDy=0;entryX=0.306;entryY=-0.042;entryDx=0;entryDy=0;labelBackgroundColor=none;dashed=1;entryPerimeter=0;fontSize=14;" edge="1" parent="1" source="rds3YLK9paXWLcEGhgOw-14" target="rds3YLK9paXWLcEGhgOw-11">&#xa;          <mxGeometry relative="1" as="geometry">&#xa;            <Array as="points">&#xa;              <mxPoint x="688" y="-287"/>&#xa;            </Array>&#xa;          </mxGeometry>&#xa;        </mxCell>&#xa;        <mxCell id="rds3YLK9paXWLcEGhgOw-14" value="Chỉnh sửa file APK" style="ellipse;whiteSpace=wrap;html=1;fontSize=14;" vertex="1" parent="1">&#xa;          <mxGeometry x="438.5" y="-430" width="126" height="59" as="geometry"/>&#xa;        </mxCell>&#xa;        <mxCell id="rds3YLK9paXWLcEGhgOw-15" value="" style="rounded=0;orthogonalLoop=1;jettySize=auto;html=1;exitX=0;exitY=0.5;exitDx=0;exitDy=0;dashed=1;labelBackgroundColor=none;entryX=1;entryY=0.6;entryDx=0;entryDy=0;entryPerimeter=0;fontSize=14;" edge="1" parent="1" source="rds3YLK9paXWLcEGhgOw-17" target="rds3YLK9paXWLcEGhgOw-6">&#xa;          <mxGeometry relative="1" as="geometry">&#xa;            <mxPoint x="323" y="-281" as="targetPoint"/>&#xa;          </mxGeometry>&#xa;        </mxCell>&#xa;        <mxCell id="rds3YLK9paXWLcEGhgOw-16" value="" style="rounded=0;orthogonalLoop=1;jettySize=auto;html=1;exitX=1;exitY=0.5;exitDx=0;exitDy=0;entryX=0;entryY=0;entryDx=0;entryDy=0;dashed=1;labelBackgroundColor=none;fontSize=14;" edge="1" parent="1" source="rds3YLK9paXWLcEGhgOw-17" target="rds3YLK9paXWLcEGhgOw-11">&#xa;          <mxGeometry relative="1" as="geometry">&#xa;            <Array as="points">&#xa;              <mxPoint x="655" y="-238"/>&#xa;            </Array>&#xa;          </mxGeometry>&#xa;        </mxCell>&#xa;        <mxCell id="rds3YLK9paXWLcEGhgOw-17" value="Tải xuống file APK" style="ellipse;whiteSpace=wrap;html=1;fontSize=14;" vertex="1" parent="1">&#xa;          <mxGeometry x="441" y="-361" width="123.5" height="62" as="geometry"/>&#xa;        </mxCell>&#xa;        <mxCell id="rds3YLK9paXWLcEGhgOw-18" value="" style="rounded=0;orthogonalLoop=1;jettySize=auto;html=1;exitX=1;exitY=0.5;exitDx=0;exitDy=0;entryX=0;entryY=0.5;entryDx=0;entryDy=0;dashed=1;labelBackgroundColor=none;fontSize=14;" edge="1" parent="1" source="rds3YLK9paXWLcEGhgOw-20" target="rds3YLK9paXWLcEGhgOw-11">&#xa;          <mxGeometry relative="1" as="geometry"/>&#xa;        </mxCell>&#xa;        <mxCell id="rds3YLK9paXWLcEGhgOw-19" value="" style="rounded=0;orthogonalLoop=1;jettySize=auto;html=1;exitX=0;exitY=0.5;exitDx=0;exitDy=0;entryX=1;entryY=1;entryDx=0;entryDy=0;dashed=1;labelBackgroundColor=none;fontSize=14;" edge="1" parent="1" source="rds3YLK9paXWLcEGhgOw-20" target="rds3YLK9paXWLcEGhgOw-6">&#xa;          <mxGeometry relative="1" as="geometry">&#xa;            <Array as="points">&#xa;              <mxPoint x="376" y="-217"/>&#xa;            </Array>&#xa;          </mxGeometry>&#xa;        </mxCell>&#xa;        <mxCell id="rds3YLK9paXWLcEGhgOw-20" value="Xem file APK" style="ellipse;whiteSpace=wrap;html=1;fontSize=14;" vertex="1" parent="1">&#xa;          <mxGeometry x="435.25" y="-214" width="135" height="66" as="geometry"/>&#xa;        </mxCell>&#xa;        <mxCell id="rds3YLK9paXWLcEGhgOw-21" value="" style="rounded=0;orthogonalLoop=1;jettySize=auto;html=1;exitX=0;exitY=0.5;exitDx=0;exitDy=0;dashed=1;labelBackgroundColor=none;entryX=0.977;entryY=0.347;entryDx=0;entryDy=0;entryPerimeter=0;fontSize=14;" edge="1" parent="1" source="rds3YLK9paXWLcEGhgOw-22" target="rds3YLK9paXWLcEGhgOw-8">&#xa;          <mxGeometry relative="1" as="geometry">&#xa;            <mxPoint x="333" y="21" as="targetPoint"/>&#xa;            <Array as="points"/>&#xa;          </mxGeometry>&#xa;        </mxCell>&#xa;        <mxCell id="rds3YLK9paXWLcEGhgOw-22" value="Thêm chính sách" style="ellipse;whiteSpace=wrap;html=1;fontSize=14;" vertex="1" parent="1">&#xa;          <mxGeometry x="440.75" y="-64" width="127" height="57" as="geometry"/>&#xa;        </mxCell>&#xa;        <mxCell id="rds3YLK9paXWLcEGhgOw-29" value="" style="rounded=0;orthogonalLoop=1;jettySize=auto;html=1;exitX=0;exitY=0.5;exitDx=0;exitDy=0;entryX=0.977;entryY=0.653;entryDx=0;entryDy=0;dashed=1;labelBackgroundColor=none;entryPerimeter=0;fontSize=14;" edge="1" parent="1" source="rds3YLK9paXWLcEGhgOw-31" target="rds3YLK9paXWLcEGhgOw-8">&#xa;          <mxGeometry x="0.0076" relative="1" as="geometry">&#xa;            <mxPoint x="357" y="27" as="targetPoint"/>&#xa;            <Array as="points"/>&#xa;            <mxPoint as="offset"/>&#xa;          </mxGeometry>&#xa;        </mxCell>&#xa;        <mxCell id="rds3YLK9paXWLcEGhgOw-30" value="" style="rounded=0;orthogonalLoop=1;jettySize=auto;html=1;exitX=1;exitY=0.5;exitDx=0;exitDy=0;entryX=0.05;entryY=0.8;entryDx=0;entryDy=0;dashed=1;labelBackgroundColor=none;entryPerimeter=0;fontSize=14;" edge="1" parent="1" source="rds3YLK9paXWLcEGhgOw-31" target="rds3YLK9paXWLcEGhgOw-11">&#xa;          <mxGeometry relative="1" as="geometry">&#xa;            <Array as="points">&#xa;              <mxPoint x="646" y="-28"/>&#xa;            </Array>&#xa;          </mxGeometry>&#xa;        </mxCell>&#xa;        <mxCell id="rds3YLK9paXWLcEGhgOw-31" value="Xem chính sách" style="ellipse;whiteSpace=wrap;html=1;fontSize=14;" vertex="1" parent="1">&#xa;          <mxGeometry x="442" y="5" width="135" height="66" as="geometry"/>&#xa;        </mxCell>&#xa;        <mxCell id="7ntKSEfj1uFYItKYlo4e-2" value="&amp;lt;&amp;lt;extend&amp;gt;&amp;gt;" style="text;html=1;strokeColor=none;fillColor=none;align=center;verticalAlign=middle;whiteSpace=wrap;rounded=0;rotation=-45;fontSize=14;" vertex="1" parent="1">&#xa;          <mxGeometry x="113" y="-260" width="60" height="30" as="geometry"/>&#xa;        </mxCell>&#xa;        <mxCell id="7ntKSEfj1uFYItKYlo4e-3" value="&amp;lt;&amp;lt;extend&amp;gt;&amp;gt;" style="text;html=1;strokeColor=none;fillColor=none;align=center;verticalAlign=middle;whiteSpace=wrap;rounded=0;rotation=60;fontSize=14;" vertex="1" parent="1">&#xa;          <mxGeometry x="119" y="-99" width="60" height="30" as="geometry"/>&#xa;        </mxCell>&#xa;        <mxCell id="7ntKSEfj1uFYItKYlo4e-5" value="&amp;lt;&amp;lt;extend&amp;gt;&amp;gt;" style="text;html=1;strokeColor=none;fillColor=none;align=center;verticalAlign=middle;whiteSpace=wrap;rounded=0;rotation=-60;fontSize=14;" vertex="1" parent="1">&#xa;          <mxGeometry x="323" y="-415.5" width="60" height="30" as="geometry"/>&#xa;        </mxCell>&#xa;        <mxCell id="7ntKSEfj1uFYItKYlo4e-9" value="&amp;lt;&amp;lt;extend&amp;gt;&amp;gt;" style="text;html=1;strokeColor=none;fillColor=none;align=center;verticalAlign=middle;whiteSpace=wrap;rounded=0;rotation=-15;fontSize=14;" vertex="1" parent="1">&#xa;          <mxGeometry x="358" y="-332" width="60" height="30" as="geometry"/>&#xa;        </mxCell>&#xa;        <mxCell id="7ntKSEfj1uFYItKYlo4e-11" value="&amp;lt;&amp;lt;extend&amp;gt;&amp;gt;" style="text;html=1;strokeColor=none;fillColor=none;align=center;verticalAlign=middle;whiteSpace=wrap;rounded=0;rotation=30;fontSize=14;" vertex="1" parent="1">&#xa;          <mxGeometry x="358" y="-236" width="60" height="30" as="geometry"/>&#xa;        </mxCell>&#xa;        <mxCell id="7ntKSEfj1uFYItKYlo4e-12" value="&amp;lt;&amp;lt;extend&amp;gt;&amp;gt;" style="text;html=1;strokeColor=none;fillColor=none;align=center;verticalAlign=middle;whiteSpace=wrap;rounded=0;rotation=-30;fontSize=14;" vertex="1" parent="1">&#xa;          <mxGeometry x="366" y="-40" width="60" height="30" as="geometry"/>&#xa;        </mxCell>&#xa;        <mxCell id="7ntKSEfj1uFYItKYlo4e-13" value="&amp;lt;&amp;lt;extend&amp;gt;&amp;gt;" style="text;html=1;strokeColor=none;fillColor=none;align=center;verticalAlign=middle;whiteSpace=wrap;rounded=0;rotation=0;fontSize=14;" vertex="1" parent="1">&#xa;          <mxGeometry x="362" y="15" width="60" height="30" as="geometry"/>&#xa;        </mxCell>&#xa;        <mxCell id="7ntKSEfj1uFYItKYlo4e-16" value="&amp;lt;&amp;lt;include&amp;gt;&amp;gt;" style="text;html=1;strokeColor=none;fillColor=none;align=center;verticalAlign=middle;whiteSpace=wrap;rounded=0;rotation=45;fontSize=14;" vertex="1" parent="1">&#xa;          <mxGeometry x="608" y="-365" width="60" height="30" as="geometry"/>&#xa;        </mxCell>&#xa;        <mxCell id="7ntKSEfj1uFYItKYlo4e-17" value="&amp;lt;&amp;lt;include&amp;gt;&amp;gt;" style="text;html=1;strokeColor=none;fillColor=none;align=center;verticalAlign=middle;whiteSpace=wrap;rounded=0;rotation=45;fontSize=14;" vertex="1" parent="1">&#xa;          <mxGeometry x="589" y="-306" width="60" height="30" as="geometry"/>&#xa;        </mxCell>&#xa;        <mxCell id="7ntKSEfj1uFYItKYlo4e-18" value="&amp;lt;&amp;lt;include&amp;gt;&amp;gt;" style="text;html=1;strokeColor=none;fillColor=none;align=center;verticalAlign=middle;whiteSpace=wrap;rounded=0;rotation=15;fontSize=14;" vertex="1" parent="1">&#xa;          <mxGeometry x="591" y="-186" width="60" height="30" as="geometry"/>&#xa;        </mxCell>&#xa;        <mxCell id="7ntKSEfj1uFYItKYlo4e-19" value="&amp;lt;&amp;lt;include&amp;gt;&amp;gt;" style="text;html=1;strokeColor=none;fillColor=none;align=center;verticalAlign=middle;whiteSpace=wrap;rounded=0;rotation=-45;fontSize=14;" vertex="1" parent="1">&#xa;          <mxGeometry x="582" y="-25" width="60" height="30" as="geometry"/>&#xa;        </mxCell>&#xa;        <mxCell id="TrFAo1O8w0JtCs91px-H-3" style="rounded=0;orthogonalLoop=1;jettySize=auto;html=1;exitX=0;exitY=0.5;exitDx=0;exitDy=0;entryX=0.959;entryY=0.208;entryDx=0;entryDy=0;entryPerimeter=0;dashed=1;fontSize=14;" edge="1" parent="1" source="TrFAo1O8w0JtCs91px-H-2" target="rds3YLK9paXWLcEGhgOw-8">&#xa;          <mxGeometry relative="1" as="geometry"/>&#xa;        </mxCell>&#xa;        <mxCell id="TrFAo1O8w0JtCs91px-H-2" value="Xem thông tinh chính sách" style="ellipse;whiteSpace=wrap;html=1;fontSize=14;" vertex="1" parent="1">&#xa;          <mxGeometry x="439.25" y="-132" width="127" height="57" as="geometry"/>&#xa;        </mxCell>&#xa;        <mxCell id="TrFAo1O8w0JtCs91px-H-4" value="&amp;lt;&amp;lt;extend&amp;gt;&amp;gt;" style="text;html=1;strokeColor=none;fillColor=none;align=center;verticalAlign=middle;whiteSpace=wrap;rounded=0;rotation=-45;fontSize=14;" vertex="1" parent="1">&#xa;          <mxGeometry x="358" y="-81" width="60" height="30" as="geometry"/>&#xa;        </mxCell>&#xa;        <mxCell id="yfllZ1dRjGvO-jmcKwtK-2" style="rounded=0;orthogonalLoop=1;jettySize=auto;html=1;exitX=0;exitY=0.5;exitDx=0;exitDy=0;entryX=0.936;entryY=0.81;entryDx=0;entryDy=0;entryPerimeter=0;dashed=1;fontSize=14;" edge="1" parent="1" source="yfllZ1dRjGvO-jmcKwtK-1" target="rds3YLK9paXWLcEGhgOw-8">&#xa;          <mxGeometry relative="1" as="geometry"/>&#xa;        </mxCell>&#xa;        <mxCell id="yfllZ1dRjGvO-jmcKwtK-13" style="rounded=0;orthogonalLoop=1;jettySize=auto;html=1;exitX=1;exitY=0.5;exitDx=0;exitDy=0;entryX=0.347;entryY=1;entryDx=0;entryDy=0;entryPerimeter=0;dashed=1;fontSize=14;" edge="1" parent="1" source="yfllZ1dRjGvO-jmcKwtK-1" target="rds3YLK9paXWLcEGhgOw-11">&#xa;          <mxGeometry relative="1" as="geometry">&#xa;            <Array as="points">&#xa;              <mxPoint x="706" y="-12"/>&#xa;            </Array>&#xa;          </mxGeometry>&#xa;        </mxCell>&#xa;        <mxCell id="yfllZ1dRjGvO-jmcKwtK-1" value="Chọn trạng thái chạy chính sách" style="ellipse;whiteSpace=wrap;html=1;fontSize=14;" vertex="1" parent="1">&#xa;          <mxGeometry x="440.75" y="88" width="135" height="66" as="geometry"/>&#xa;        </mxCell>&#xa;        <mxCell id="yfllZ1dRjGvO-jmcKwtK-3" value="&amp;lt;&amp;lt;extend&amp;gt;&amp;gt;" style="text;html=1;strokeColor=none;fillColor=none;align=center;verticalAlign=middle;whiteSpace=wrap;rounded=0;rotation=30;fontSize=14;" vertex="1" parent="1">&#xa;          <mxGeometry x="366" y="65" width="60" height="30" as="geometry"/>&#xa;        </mxCell>&#xa;        <mxCell id="yfllZ1dRjGvO-jmcKwtK-6" value="&amp;lt;&amp;lt;extend&amp;gt;&amp;gt;" style="text;html=1;strokeColor=none;fillColor=none;align=center;verticalAlign=middle;whiteSpace=wrap;rounded=0;rotation=-45;fontSize=14;" vertex="1" parent="1">&#xa;          <mxGeometry x="349.5" y="-389" width="60" height="30" as="geometry"/>&#xa;        </mxCell>&#xa;        <mxCell id="yfllZ1dRjGvO-jmcKwtK-8" style="rounded=0;orthogonalLoop=1;jettySize=auto;html=1;exitX=0;exitY=0.5;exitDx=0;exitDy=0;entryX=0.972;entryY=0.679;entryDx=0;entryDy=0;entryPerimeter=0;dashed=1;fontSize=14;" edge="1" parent="1" source="yfllZ1dRjGvO-jmcKwtK-7" target="rds3YLK9paXWLcEGhgOw-6">&#xa;          <mxGeometry relative="1" as="geometry"/>&#xa;        </mxCell>&#xa;        <mxCell id="yfllZ1dRjGvO-jmcKwtK-11" style="rounded=0;orthogonalLoop=1;jettySize=auto;html=1;exitX=1;exitY=0.5;exitDx=0;exitDy=0;entryX=0.042;entryY=0.333;entryDx=0;entryDy=0;entryPerimeter=0;dashed=1;fontSize=14;" edge="1" parent="1" source="yfllZ1dRjGvO-jmcKwtK-7" target="rds3YLK9paXWLcEGhgOw-11">&#xa;          <mxGeometry relative="1" as="geometry"/>&#xa;        </mxCell>&#xa;        <mxCell id="yfllZ1dRjGvO-jmcKwtK-7" value="Xoá file APK" style="ellipse;whiteSpace=wrap;html=1;fontSize=14;" vertex="1" parent="1">&#xa;          <mxGeometry x="439.25" y="-289" width="135" height="66" as="geometry"/>&#xa;        </mxCell>&#xa;        <mxCell id="yfllZ1dRjGvO-jmcKwtK-9" value="&amp;lt;&amp;lt;extend&amp;gt;&amp;gt;" style="text;html=1;strokeColor=none;fillColor=none;align=center;verticalAlign=middle;whiteSpace=wrap;rounded=0;rotation=0;fontSize=14;" vertex="1" parent="1">&#xa;          <mxGeometry x="358" y="-286" width="60" height="30" as="geometry"/>&#xa;        </mxCell>&#xa;        <mxCell id="yfllZ1dRjGvO-jmcKwtK-12" value="&amp;lt;&amp;lt;include&amp;gt;&amp;gt;" style="text;html=1;strokeColor=none;fillColor=none;align=center;verticalAlign=middle;whiteSpace=wrap;rounded=0;rotation=45;fontSize=14;" vertex="1" parent="1">&#xa;          <mxGeometry x="589" y="-246" width="60" height="30" as="geometry"/>&#xa;        </mxCell>&#xa;        <mxCell id="yfllZ1dRjGvO-jmcKwtK-15" value="&amp;lt;&amp;lt;include&amp;gt;&amp;gt;" style="text;html=1;strokeColor=none;fillColor=none;align=center;verticalAlign=middle;whiteSpace=wrap;rounded=0;rotation=-45;fontSize=14;" vertex="1" parent="1">&#xa;          <mxGeometry x="617" y="15" width="60" height="30" as="geometry"/>&#xa;        </mxCell>&#xa;      </root>&#xa;    </mxGraphModel>&#xa;  </diagram><diagram id="94VP5HpHzjd2O6pqrYDg" name="Quản lý ứng dụng">&#xa;    <mxGraphModel grid="0" page="0" gridSize="10" guides="1" tooltips="1" connect="1" arrows="1" fold="1" pageScale="1" pageWidth="827" pageHeight="1169" math="0" shadow="0">&#xa;      <root>&#xa;        <mxCell id="0"/>&#xa;        <mxCell id="1" parent="0"/>&#xa;        <mxCell id="xjsntrfpeUXmJVMLMCXH-1" value="" style="rounded=0;whiteSpace=wrap;html=1;labelBackgroundColor=default;strokeWidth=3;dashed=1;" vertex="1" parent="1">&#xa;          <mxGeometry x="-58" y="-397" width="497" height="428" as="geometry"/>&#xa;        </mxCell>&#xa;        <mxCell id="xjsntrfpeUXmJVMLMCXH-2" style="edgeStyle=orthogonalEdgeStyle;rounded=0;orthogonalLoop=1;jettySize=auto;html=1;exitX=0.5;exitY=0.5;exitDx=0;exitDy=0;exitPerimeter=0;entryX=0;entryY=0.5;entryDx=0;entryDy=0;" edge="1" parent="1" source="xjsntrfpeUXmJVMLMCXH-3" target="xjsntrfpeUXmJVMLMCXH-4">&#xa;          <mxGeometry relative="1" as="geometry"/>&#xa;        </mxCell>&#xa;        <mxCell id="xjsntrfpeUXmJVMLMCXH-3" value="Quản lý" style="shape=umlActor;verticalLabelPosition=bottom;verticalAlign=top;html=1;outlineConnect=0;" vertex="1" parent="1">&#xa;          <mxGeometry x="-165" y="-216" width="30" height="60" as="geometry"/>&#xa;        </mxCell>&#xa;        <mxCell id="xjsntrfpeUXmJVMLMCXH-4" value="Quản lý ứng dụng" style="ellipse;whiteSpace=wrap;html=1;" vertex="1" parent="1">&#xa;          <mxGeometry x="-32" y="-226" width="120" height="80" as="geometry"/>&#xa;        </mxCell>&#xa;        <mxCell id="xjsntrfpeUXmJVMLMCXH-5" value="" style="rounded=0;orthogonalLoop=1;jettySize=auto;html=1;exitX=0;exitY=0.5;exitDx=0;exitDy=0;dashed=1;labelBackgroundColor=none;" edge="1" parent="1" source="xjsntrfpeUXmJVMLMCXH-6">&#xa;          <mxGeometry relative="1" as="geometry">&#xa;            <mxPoint x="89" y="-198" as="targetPoint"/>&#xa;          </mxGeometry>&#xa;        </mxCell>&#xa;        <mxCell id="xjsntrfpeUXmJVMLMCXH-6" value="Kiẻm tra danh sách ứng dụng trên hệ thống" style="ellipse;whiteSpace=wrap;html=1;" vertex="1" parent="1">&#xa;          <mxGeometry x="203" y="-321" width="148" height="78" as="geometry"/>&#xa;        </mxCell>&#xa;        <mxCell id="xjsntrfpeUXmJVMLMCXH-7" value="" style="rounded=0;orthogonalLoop=1;jettySize=auto;html=1;exitX=0;exitY=0.5;exitDx=0;exitDy=0;entryX=0.996;entryY=0.672;entryDx=0;entryDy=0;dashed=1;labelBackgroundColor=none;entryPerimeter=0;" edge="1" parent="1" source="xjsntrfpeUXmJVMLMCXH-43" target="xjsntrfpeUXmJVMLMCXH-4">&#xa;          <mxGeometry relative="1" as="geometry">&#xa;            <mxPoint x="188.49999999999932" y="26" as="sourcePoint"/>&#xa;          </mxGeometry>&#xa;        </mxCell>&#xa;        <mxCell id="xjsntrfpeUXmJVMLMCXH-26" value="&amp;lt;&amp;lt;extend&amp;gt;&amp;gt;" style="text;html=1;strokeColor=none;fillColor=none;align=center;verticalAlign=middle;whiteSpace=wrap;rounded=0;rotation=-45;" vertex="1" parent="1">&#xa;          <mxGeometry x="109" y="-263" width="60" height="30" as="geometry"/>&#xa;        </mxCell>&#xa;        <mxCell id="xjsntrfpeUXmJVMLMCXH-27" value="&amp;lt;&amp;lt;extend&amp;gt;&amp;gt;" style="text;html=1;strokeColor=none;fillColor=none;align=center;verticalAlign=middle;whiteSpace=wrap;rounded=0;rotation=30;" vertex="1" parent="1">&#xa;          <mxGeometry x="121" y="-150" width="60" height="30" as="geometry"/>&#xa;        </mxCell>&#xa;        <mxCell id="xjsntrfpeUXmJVMLMCXH-45" style="rounded=0;orthogonalLoop=1;jettySize=auto;html=1;exitX=0;exitY=0.5;exitDx=0;exitDy=0;entryX=1;entryY=0.5;entryDx=0;entryDy=0;dashed=1;" edge="1" parent="1" source="xjsntrfpeUXmJVMLMCXH-41" target="xjsntrfpeUXmJVMLMCXH-4">&#xa;          <mxGeometry relative="1" as="geometry"/>&#xa;        </mxCell>&#xa;        <mxCell id="xjsntrfpeUXmJVMLMCXH-41" value="Tìm thông tin ứng dụng" style="ellipse;whiteSpace=wrap;html=1;" vertex="1" parent="1">&#xa;          <mxGeometry x="202.5" y="-222" width="149" height="72" as="geometry"/>&#xa;        </mxCell>&#xa;        <mxCell id="HN_TF6jhnTaiR_Xz4N7h-1" style="edgeStyle=orthogonalEdgeStyle;rounded=0;orthogonalLoop=1;jettySize=auto;html=1;exitX=1;exitY=0.5;exitDx=0;exitDy=0;entryX=1;entryY=0.5;entryDx=0;entryDy=0;dashed=1;" edge="1" parent="1" source="xjsntrfpeUXmJVMLMCXH-43" target="xjsntrfpeUXmJVMLMCXH-41">&#xa;          <mxGeometry relative="1" as="geometry"/>&#xa;        </mxCell>&#xa;        <mxCell id="xjsntrfpeUXmJVMLMCXH-43" value="Xem thông tin ứng dụng" style="ellipse;whiteSpace=wrap;html=1;" vertex="1" parent="1">&#xa;          <mxGeometry x="202.5" y="-120" width="149" height="72" as="geometry"/>&#xa;        </mxCell>&#xa;        <mxCell id="xjsntrfpeUXmJVMLMCXH-46" value="&amp;lt;&amp;lt;extend&amp;gt;&amp;gt;" style="text;html=1;strokeColor=none;fillColor=none;align=center;verticalAlign=middle;whiteSpace=wrap;rounded=0;rotation=0;" vertex="1" parent="1">&#xa;          <mxGeometry x="123" y="-211" width="60" height="30" as="geometry"/>&#xa;        </mxCell>&#xa;        <mxCell id="TeI7oqdQ031uIHZRKrNJ-1" value="&amp;lt;&amp;lt;include&amp;gt;&amp;gt;" style="text;html=1;strokeColor=none;fillColor=none;align=center;verticalAlign=middle;whiteSpace=wrap;rounded=0;rotation=90;" vertex="1" parent="1">&#xa;          <mxGeometry x="351" y="-144" width="60" height="30" as="geometry"/>&#xa;        </mxCell>&#xa;      </root>&#xa;    </mxGraphModel>&#xa;  </diagram><diagram id="gVrDfZYvsN47itnQp2Mn" name="Giám sát hoạt động thiết bị">&#xa;    <mxGraphModel grid="0" page="0" gridSize="10" guides="1" tooltips="1" connect="1" arrows="1" fold="1" pageScale="1" pageWidth="827" pageHeight="1169" math="0" shadow="0">&#xa;      <root>&#xa;        <mxCell id="0"/>&#xa;        <mxCell id="1" parent="0"/>&#xa;        <mxCell id="XgwkCaCxy9J55h4jfmRV-1" value="" style="rounded=0;whiteSpace=wrap;html=1;labelBackgroundColor=default;strokeWidth=3;dashed=1;" vertex="1" parent="1">&#xa;          <mxGeometry x="186" y="-402" width="436.5" height="428" as="geometry"/>&#xa;        </mxCell>&#xa;        <mxCell id="XgwkCaCxy9J55h4jfmRV-2" style="edgeStyle=orthogonalEdgeStyle;rounded=0;orthogonalLoop=1;jettySize=auto;html=1;exitX=0.5;exitY=0.5;exitDx=0;exitDy=0;exitPerimeter=0;entryX=0;entryY=0.5;entryDx=0;entryDy=0;" edge="1" parent="1" source="XgwkCaCxy9J55h4jfmRV-3" target="XgwkCaCxy9J55h4jfmRV-4">&#xa;          <mxGeometry relative="1" as="geometry"/>&#xa;        </mxCell>&#xa;        <mxCell id="XgwkCaCxy9J55h4jfmRV-3" value="Quản lý" style="shape=umlActor;verticalLabelPosition=bottom;verticalAlign=top;html=1;outlineConnect=0;" vertex="1" parent="1">&#xa;          <mxGeometry x="79" y="-221" width="30" height="60" as="geometry"/>&#xa;        </mxCell>&#xa;        <mxCell id="XgwkCaCxy9J55h4jfmRV-4" value="Giám sát hoạt động thiết bị" style="ellipse;whiteSpace=wrap;html=1;" vertex="1" parent="1">&#xa;          <mxGeometry x="212" y="-231" width="120" height="80" as="geometry"/>&#xa;        </mxCell>&#xa;        <mxCell id="XgwkCaCxy9J55h4jfmRV-5" value="" style="rounded=0;orthogonalLoop=1;jettySize=auto;html=1;exitX=0;exitY=0.5;exitDx=0;exitDy=0;dashed=1;labelBackgroundColor=none;" edge="1" parent="1" source="XgwkCaCxy9J55h4jfmRV-6">&#xa;          <mxGeometry relative="1" as="geometry">&#xa;            <mxPoint x="333" y="-203" as="targetPoint"/>&#xa;          </mxGeometry>&#xa;        </mxCell>&#xa;        <mxCell id="XgwkCaCxy9J55h4jfmRV-6" value="Xem real-time các thông tin thiết bị" style="ellipse;whiteSpace=wrap;html=1;" vertex="1" parent="1">&#xa;          <mxGeometry x="447" y="-326" width="148" height="78" as="geometry"/>&#xa;        </mxCell>&#xa;        <mxCell id="XgwkCaCxy9J55h4jfmRV-7" value="" style="rounded=0;orthogonalLoop=1;jettySize=auto;html=1;exitX=0;exitY=0.5;exitDx=0;exitDy=0;entryX=0.996;entryY=0.672;entryDx=0;entryDy=0;dashed=1;labelBackgroundColor=none;entryPerimeter=0;" edge="1" parent="1" source="XgwkCaCxy9J55h4jfmRV-12" target="XgwkCaCxy9J55h4jfmRV-4">&#xa;          <mxGeometry relative="1" as="geometry">&#xa;            <mxPoint x="432.4999999999993" y="21" as="sourcePoint"/>&#xa;          </mxGeometry>&#xa;        </mxCell>&#xa;        <mxCell id="XgwkCaCxy9J55h4jfmRV-8" value="&amp;lt;&amp;lt;extend&amp;gt;&amp;gt;" style="text;html=1;strokeColor=none;fillColor=none;align=center;verticalAlign=middle;whiteSpace=wrap;rounded=0;rotation=-45;" vertex="1" parent="1">&#xa;          <mxGeometry x="353" y="-268" width="60" height="30" as="geometry"/>&#xa;        </mxCell>&#xa;        <mxCell id="XgwkCaCxy9J55h4jfmRV-9" value="&amp;lt;&amp;lt;extend&amp;gt;&amp;gt;" style="text;html=1;strokeColor=none;fillColor=none;align=center;verticalAlign=middle;whiteSpace=wrap;rounded=0;rotation=30;" vertex="1" parent="1">&#xa;          <mxGeometry x="365" y="-155" width="60" height="30" as="geometry"/>&#xa;        </mxCell>&#xa;        <mxCell id="XgwkCaCxy9J55h4jfmRV-10" style="rounded=0;orthogonalLoop=1;jettySize=auto;html=1;exitX=0;exitY=0.5;exitDx=0;exitDy=0;entryX=1;entryY=0.5;entryDx=0;entryDy=0;dashed=1;" edge="1" parent="1" source="XgwkCaCxy9J55h4jfmRV-11" target="XgwkCaCxy9J55h4jfmRV-4">&#xa;          <mxGeometry relative="1" as="geometry"/>&#xa;        </mxCell>&#xa;        <mxCell id="XgwkCaCxy9J55h4jfmRV-11" value="Xuất các báo cáo thống kê" style="ellipse;whiteSpace=wrap;html=1;" vertex="1" parent="1">&#xa;          <mxGeometry x="446.5" y="-227" width="149" height="72" as="geometry"/>&#xa;        </mxCell>&#xa;        <mxCell id="XgwkCaCxy9J55h4jfmRV-12" value="Gửi lệnh thực thi điều khiển thiết bị" style="ellipse;whiteSpace=wrap;html=1;" vertex="1" parent="1">&#xa;          <mxGeometry x="446.5" y="-125" width="149" height="72" as="geometry"/>&#xa;        </mxCell>&#xa;        <mxCell id="XgwkCaCxy9J55h4jfmRV-13" value="&amp;lt;&amp;lt;extend&amp;gt;&amp;gt;" style="text;html=1;strokeColor=none;fillColor=none;align=center;verticalAlign=middle;whiteSpace=wrap;rounded=0;rotation=0;" vertex="1" parent="1">&#xa;          <mxGeometry x="367" y="-216" width="60" height="30" as="geometry"/>&#xa;        </mxCell>&#xa;      </root>&#xa;    </mxGraphModel>&#xa;  </diagram></mxfile>